<?xml version="1.0" encoding="UTF-8" standalone="no"?>
<svg xmlns:rdf="http://www.w3.org/1999/02/22-rdf-syntax-ns#" xmlns="http://www.w3.org/2000/svg" height="992.5" viewBox="0 0 1087.5 992.5" width="1087.5" version="1.1" xmlns:cc="http://creativecommons.org/ns#" xmlns:dc="http://purl.org/dc/elements/1.1/">
 <path style="fill:#000000" d="m121.74 990.09c-47.519-6.7157 36.305-46.707 46.571-66.834 43.818-29.649-34.488-64.787-49.081-95.856-34.675-64.37-76.272 30.37-115.53 47.47-20.698-88.08 68.181-177.56 156.79-158.94 47.028 1.478 73.676-56.539 112.35-78.703 28.682-7.0515 36.89 67.773 67.471 86.339 49.784 29.02-10.649 53.347-33.286 78.222-12.544 13.915-36.878 22.464-30.881 44.817 6.7375 82.618-72.576 155.51-154.4 143.48zm798.75-2.2864c-71.954-13.624-119.2-88.392-109.37-159.31-29.355-26.294-59.392-51.859-88.082-78.875 35.22-34.007 62.398-75.478 81.912-120.2 40.149 24.945 70.623 75.066 114.34 87.443 85.341-21.806 176.65 55.918 166.69 143.83-6.348 30.393-48.121-33.631-67.831-42.946-37.352-43.511-66.118 42.586-97.564 62.515-55.012 40.089 59.014 71.282 62.29 105.95-20.157 5.8391-41.845 4.5188-62.379 1.5869zm-495.07-166.79c-46.902-9.0302-20.554-60.608-37.777-81.934-132.22-109.93-136.49-334.97-8.2182-449.7 86.06-84.768 235.13-86.748 323.62-4.9188 131.67 111.35 132.44 338.39 0.93699 450.04-28.623 20.017 10.825 86.058-50.299 87.773-37.652 9.7737-51.163-39.682-60.96-53.797 5.9659 71.833-105.75 66.656-100.36-1.3416-3.5174 32.422-29.683 64.586-66.943 53.883zm105.6-159.98c14.932-56.395 34.208 47.43 38.127-4.1063 6.7915-33.055-27.91-107.86-43.172-39.973-6.4468 7.4424-11.646 86.972 5.0456 44.079zm-126.34-73.9c0.17759-58.831 91.241-40.422 96.333-96.923-10.769-62.71-106.92-69.213-133.11-13.176-23.261 33.736-11.678 109.47 36.774 110.1zm289.17-0.02c61.577-30.628 42.993-134.62-22.738-147.47-48.504-19.252-120.76 51.52-59.888 85.446 34.457 12.325 68.349 30.384 77.905 63.631l4.7205-1.6098zm-457.74-267.6c-31.09-43.74-72.83-49.65-121.96-44.71-72.066-11.81-127.05-88.32-110.75-160.19 37.99 12.41 77.39 107.37 111.16 50.04 15.22-30.54 85.51-63.91 61.13-93.556-27.94-26.579-112.06-82.277-24.02-69.889 76.11 4.0871 134.67 80.399 125.07 154.98 7.5209 15.506 27.445 25.426 39.655 38.82 15.312 23.58 80.914 46.038 53.005 71.878-36.135 22.429-55.234 80.992-82.629 96.979-17.169-14.452-33.906-29.41-50.656-44.343zm550.96 34.244c-14.56-40.93-63.56-73.74-77-104.13 33.36-30.38 67.33-60.09 101.04-90.07-11.21-77.517 50.54-156.51 129.81-158.87 23.77-3.2842 61.68 2.9492 23.36 23.675-21.29 27.366-94.23 54.157-38.75 86.645 31.855 20.874 60.879 108.99 98.117 55.251 24.526-21.087 76.679-83.017 63.24-12.822-6.6333 82.105-95.135 142.44-174.08 118.84-31.619 10.15-55.343 48.249-84.309 67.741-13.773 5.6129-32.84 44.94-41.423 13.743z"/>
</svg>
